<svg width="150" height="101" viewBox="0 0 150 101" fill="none" xmlns="http://www.w3.org/2000/svg">
<path d="M53.2318 1.23118C50.138 2.12701 47.0443 5.91868 44.8516 8.11659C43.4505 9.41347 42.0547 10.8093 40.7578 12.3041C39.862 13.3041 37.5651 15.2989 37.3672 16.6947C37.4662 16.7989 37.4662 16.7989 37.5651 16.7989L36.1693 18.5906C36.0703 18.6947 36.9662 17.1947 37.0651 17.0958C36.5651 17.2937 35.7682 19.0906 35.7682 19.0906C32.9766 22.6843 29.8828 25.976 27.2891 29.7676C24.3932 34.0593 21.9974 38.4499 19.7005 43.0437C20.8985 38.4499 22.5964 34.0593 24.2943 29.6687L21.8985 34.7572L22.8985 32.4656C19.6016 38.5489 16.8099 44.9395 14.8151 51.5228C18.8047 38.0541 24.3932 23.9812 33.1745 9.51243C32.8776 10.1114 32.5755 10.9083 32.6745 10.9083C33.0755 11.0072 35.0703 7.11659 34.7735 7.01764L34.4714 7.21555C35.0703 6.11659 35.3724 5.51764 34.7735 3.92389C34.1745 2.32493 32.6745 -0.466739 30.5807 0.429094C29.2839 0.929094 28.1849 3.32493 27.6849 4.32493C27.388 4.81972 27.2891 5.6218 26.987 6.01764C26.586 6.61659 25.888 6.91868 25.2891 7.71555C23.9922 9.71034 23.0964 12.1062 22.1953 14.3041C21.7005 15.4968 16.211 27.3718 16.4089 27.476C16.612 27.3718 16.711 27.1739 16.8099 26.976C16.5078 27.8718 16.112 28.7728 15.711 29.6687C15.612 29.5697 16.013 28.8718 15.8099 28.8718C14.9141 28.6739 11.9193 36.9551 11.7214 37.752C11.3203 39.6478 10.8203 41.3458 10.0235 43.2416C9.52346 44.4395 9.02346 45.6374 8.62762 46.8353C8.62762 46.9343 8.12762 49.4291 8.52866 48.5281C8.52866 48.8301 8.4245 49.0281 8.32554 49.3301C8.32554 49.226 8.32554 49.0281 8.22658 48.9291C8.02866 49.0281 7.42971 52.0228 7.22658 52.4239C6.52866 53.9187 5.73179 55.4135 5.13283 57.0124C3.63804 61.2051 2.94012 65.4916 1.94012 69.8822C1.24221 73.1791 -0.955711 78.4656 0.544289 81.7572C1.94012 84.851 6.73179 84.6531 8.9245 82.3562C8.9245 82.5593 9.02346 82.6583 9.12762 82.7572C10.1224 75.2728 13.0182 67.6895 16.013 60.7051C16.612 61.8041 16.3099 62.2989 16.711 63.5958C17.2057 65.5958 18.5078 67.2885 19.4037 69.0853C19.8047 69.8822 24.2943 78.6687 24.4922 78.5645C24.5912 78.3666 24.4922 78.1687 24.4922 78.0697C24.7943 78.7676 25.1901 79.3666 25.5912 80.0645C25.4922 80.0645 25.2891 79.5645 25.0912 79.6635C24.2943 80.2624 28.487 86.1478 28.9818 86.5489C30.0807 87.8458 31.0807 89.0437 31.9766 90.3406C32.5755 91.1374 33.0755 91.9395 33.7735 92.5385C33.8724 92.6374 35.0703 93.5333 34.8724 93.1374C34.9714 93.2364 35.1693 93.3354 35.2682 93.5333C35.2682 93.5333 35.1693 93.4343 35.0703 93.4343C34.9714 93.7364 39.763 98.226 40.1589 98.5229C41.9557 99.6218 43.9505 100.32 46.0495 100.122C51.737 99.6218 56.1276 94.7312 59.3203 90.6426C60.1172 89.6426 60.5183 88.8458 60.4193 87.7468C60.2162 85.0541 59.2214 86.351 58.3203 87.3458C56.6276 89.1426 53.4297 91.1374 50.836 91.1374C49.8412 91.2416 48.8412 90.8406 47.8412 90.4395C47.4453 90.2416 43.9505 88.1478 43.9505 88.2468C44.0495 88.4447 44.1537 88.7468 44.3516 88.9447C42.6537 87.5489 40.8568 85.0541 39.263 83.2572L32.3776 75.3718C31.4766 74.377 25.0912 65.2937 22.2995 60.7051L25.4922 66.3926C23.6953 63.5958 22.0964 60.7051 20.5026 57.7103C25.4922 58.0072 31.4766 54.1166 35.5703 51.5228C39.263 49.0281 42.0547 45.0385 45.2474 41.5437C51.638 34.8562 57.6224 26.6739 59.3203 17.2937C57.0235 30.2676 49.2422 40.4447 39.5599 48.8301C42.7526 48.0281 45.9453 44.3406 48.1433 42.0437C50.638 39.6478 52.8308 36.8562 54.9297 34.0593C57.3255 30.7676 59.3203 27.1739 60.7162 23.2833C61.3151 21.7833 63.4089 17.3926 63.013 15.3978C63.013 15.3978 62.711 16.0958 62.513 16.5958C62.8099 14.8978 63.013 13.3041 62.9141 11.5072C63.013 11.9083 63.211 12.5072 63.112 12.6062C63.3099 12.5072 63.211 11.2103 63.211 10.7103C63.211 10.7103 63.112 10.0124 63.211 10.2103C62.8099 5.41868 58.4193 -0.268823 53.2318 1.23118ZM53.1328 13.4031C53.0339 13.8041 53.0339 13.7051 53.1328 13.502C52.6328 20.3874 48.7422 27.1739 44.8516 32.6635C42.8568 35.5593 40.5599 38.252 38.1641 40.8458C37.0651 41.9447 35.8672 43.0437 34.6693 44.0385C33.7735 44.9395 31.8776 45.9343 30.9818 47.0333C31.7787 46.2364 33.5755 45.2364 34.3724 44.6374C35.9662 43.2416 37.5651 41.6426 39.0599 40.1478C41.4557 37.5541 43.7526 34.8562 45.7474 31.9656C39.6589 41.0437 31.2787 48.9291 21.2005 53.1218C21.9974 52.6218 23.9922 51.6218 23.9922 51.5228C23.7943 51.3249 19.8047 53.1218 19.4037 53.3197C20.7005 50.726 21.9974 48.1322 23.3932 45.5333C23.7943 44.9395 26.987 38.851 26.987 38.851C26.7891 38.851 26.586 38.9499 26.487 39.2468C30.8776 32.1635 36.6693 25.0801 42.0547 18.5906C43.7526 16.5958 53.6328 3.72597 53.1328 13.3041V13.4031ZM29.6797 17.3926C29.8828 16.9968 30.7787 14.6999 30.5807 15.101L27.987 20.7885C28.586 19.6895 29.1849 18.5906 29.6797 17.3926ZM21.1016 58.2103C20.8985 58.3093 21.4974 59.3093 22.2995 60.7051C21.5964 59.3093 21.0026 58.2103 21.1016 58.2103ZM28.1849 70.3822C28.1849 70.3822 28.1849 70.2833 28.2839 70.4812V70.5853L28.1849 70.3822ZM28.1849 70.3822C28.086 70.3822 28.086 70.2833 27.987 70.1843C28.086 70.2833 28.086 70.3822 28.1849 70.3822ZM25.5912 40.6478C25.5912 40.5489 25.6901 40.5489 25.6901 40.4447C25.6901 40.5489 25.5912 40.6478 25.5912 40.6478Z" fill="white"/>
<path d="M93.4399 53.018C93.143 51.6221 92.3461 51.4242 91.3461 51.8253C89.4503 52.7211 87.5545 54.7159 85.7576 55.9138C81.669 58.5075 77.5753 60.6065 73.1847 62.7992C73.1847 62.7002 73.0857 62.5023 72.9867 62.2002C73.0857 62.7002 72.9867 62.8982 72.8826 62.9971C71.8878 58.7107 70.8878 54.419 70.0909 50.0284C70.492 51.9242 71.3878 55.1169 72.0857 57.8096C71.1899 53.6169 70.0909 48.4294 70.1899 48.4294C69.992 48.5284 69.992 48.7315 69.992 48.9294C69.794 47.7315 69.492 46.2367 69.6899 44.9398C69.794 43.4398 70.5909 42.143 71.0909 40.7471C70.9867 41.445 70.7888 42.3409 70.7888 42.3409C71.3878 42.445 71.7888 38.7523 71.7888 38.3513C71.6899 37.7523 70.393 35.8565 70.393 36.3565C67.6951 33.8617 62.4086 39.3513 61.6065 41.7419C61.0076 43.3409 61.0076 45.0388 61.1117 46.7315C61.2107 48.4294 61.7107 49.9294 62.2055 51.5232C62.5076 52.7211 62.1065 53.518 62.2055 54.8148C62.4086 56.8148 63.1065 58.8096 63.5024 60.7055C63.9034 62.2002 65.2003 65.195 64.9034 66.5909C64.7003 67.9867 61.7107 69.1846 60.4138 69.9867C58.7159 71.0805 57.018 72.3773 55.3201 73.6794C52.3305 75.9711 49.1326 78.8669 47.9399 82.5596C47.7367 83.0596 47.0388 85.2523 47.7367 85.6534C47.8357 85.7523 48.1378 84.0544 48.2367 83.8565C46.9399 90.4398 53.4242 93.6325 59.5128 93.7367C66.3982 93.9346 71.1899 89.945 73.5857 83.7575C74.5805 81.0596 74.8826 78.268 74.7836 75.4711C74.7836 73.5752 74.5805 71.7784 74.2836 69.9867C74.0805 68.3878 73.8826 68.4867 74.9815 67.5909C75.7784 66.9919 76.9763 66.5909 77.7732 66.195C80.9659 64.4971 83.8617 62.5023 86.7576 60.4034C88.8513 58.9086 93.8409 56.3148 93.4399 53.1221V53.018ZM53.1274 87.3461C50.5336 86.5492 53.1274 82.4607 54.0232 81.1638C55.5232 79.1638 57.7159 77.669 59.7107 76.2732L62.7055 74.2732C63.0076 74.0753 64.9034 72.5805 64.3045 72.7784L65.5024 72.0805L64.8045 72.6794C65.0024 72.5805 65.2992 72.4815 65.5024 72.2784C65.6013 74.6742 65.6013 77.07 64.9034 79.4659C64.8045 79.8617 62.9086 83.8565 62.1065 84.6534L62.6065 84.2523C61.7107 85.3513 60.7107 86.2523 59.5128 86.9503C59.5128 86.8513 60.4138 86.2523 60.3097 86.1482L57.518 87.2471C56.1222 87.5492 54.5232 87.8461 53.1274 87.3461ZM65.7003 90.2419C63.1065 91.3409 60.6117 91.8409 57.919 91.9398C62.8045 91.6377 67.8982 89.2419 70.7888 85.1534C69.6899 87.3461 68.294 89.044 65.7003 90.2419ZM72.9867 61.9034C72.8826 61.2055 72.6847 60.2055 72.3878 59.1065C72.5857 60.2055 72.7836 61.3044 72.9867 61.9034ZM74.2836 72.2784C74.1847 72.1794 74.1847 71.9815 74.1847 71.7784C74.1847 71.9815 74.2836 72.1794 74.2836 72.2784Z" fill="white"/>
<path d="M139.345 1.23118C136.251 2.12701 133.158 5.91868 130.965 8.11659C129.564 9.41347 128.168 10.8093 126.871 12.3041C125.975 13.3041 123.678 15.2989 123.48 16.6947C123.579 16.7989 123.579 16.7989 123.678 16.7989L122.283 18.5906C122.184 18.6947 123.079 17.1947 123.178 17.0958C122.678 17.2937 121.882 19.0906 121.882 19.0906C119.09 22.6843 115.996 25.976 113.402 29.7676C110.507 34.0593 108.111 38.4499 105.814 43.0437C107.012 38.4499 108.71 34.0593 110.408 29.6687L108.012 34.7572L109.012 32.4656C105.715 38.5489 102.923 44.9395 100.928 51.5228C104.918 38.0541 110.507 23.9812 119.288 9.51243C118.991 10.1114 118.689 10.9083 118.788 10.9083C119.189 11.0072 121.184 7.11659 120.887 7.01764L120.585 7.21555C121.184 6.11659 121.486 5.51764 120.887 3.92389C120.288 2.32493 118.788 -0.466739 116.694 0.429094C115.397 0.929094 114.298 3.32493 113.798 4.32493C113.501 4.81972 113.402 5.6218 113.1 6.01764C112.699 6.61659 112.001 6.91868 111.402 7.71555C110.105 9.71034 109.21 12.1062 108.309 14.3041C107.814 15.4968 102.324 27.3718 102.522 27.476C102.725 27.3718 102.824 27.1739 102.923 26.976C102.621 27.8718 102.225 28.7728 101.824 29.6687C101.725 29.5697 102.126 28.8718 101.923 28.8718C101.027 28.6739 98.0326 36.9551 97.8347 37.752C97.4336 39.6478 96.9336 41.3458 96.1367 43.2416C95.6367 44.4395 95.1367 45.6374 94.7409 46.8353C94.7409 46.9343 94.2409 49.4291 94.6419 48.5281C94.6419 48.8301 94.5378 49.0281 94.4388 49.3301C94.4388 49.226 94.4388 49.0281 94.3399 48.9291C94.1419 49.0281 93.543 52.0228 93.3399 52.4239C92.6419 53.9187 91.8451 55.4135 91.2461 57.0124C89.7513 61.2051 89.0534 65.4916 88.0534 69.8822C87.3555 73.1791 85.1576 78.4656 86.6576 81.7572C88.0534 84.851 92.8451 84.6531 95.0378 82.3562C95.0378 82.5593 95.1367 82.6583 95.2409 82.7572C96.2357 75.2728 99.1315 67.6895 102.126 60.7051C102.725 61.8041 102.423 62.2989 102.824 63.5958C103.319 65.5958 104.621 67.2885 105.517 69.0853C105.918 69.8822 110.408 78.6687 110.605 78.5645C110.704 78.3666 110.605 78.1687 110.605 78.0697C110.908 78.7676 111.303 79.3666 111.704 80.0645C111.605 80.0645 111.402 79.5645 111.204 79.6635C110.408 80.2624 114.6 86.1478 115.095 86.5489C116.194 87.8458 117.194 89.0437 118.09 90.3406C118.689 91.1374 119.189 91.9395 119.887 92.5385C119.986 92.6374 121.184 93.5333 120.986 93.1374C121.085 93.2364 121.283 93.3354 121.382 93.5333C121.382 93.5333 121.283 93.4343 121.184 93.4343C121.085 93.7364 125.876 98.226 126.272 98.5229C128.069 99.6218 130.064 100.32 132.163 100.122C137.85 99.6218 142.241 94.7312 145.434 90.6426C146.23 89.6426 146.632 88.8458 146.533 87.7468C146.329 85.0541 145.335 86.351 144.434 87.3458C142.741 89.1426 139.543 91.1374 136.949 91.1374C135.954 91.2416 134.954 90.8406 133.954 90.4395C133.559 90.2416 130.064 88.1478 130.064 88.2468C130.163 88.4447 130.267 88.7468 130.465 88.9447C128.767 87.5489 126.97 85.0541 125.376 83.2572L118.491 75.3718C117.59 74.377 111.204 65.2937 108.413 60.7051L111.605 66.3926C109.809 63.5958 108.21 60.7051 106.616 57.7103C111.605 58.0072 117.59 54.1166 121.684 51.5228C125.376 49.0281 128.168 45.0385 131.361 41.5437C137.751 34.8562 143.736 26.6739 145.434 17.2937C143.137 30.2676 135.355 40.4447 125.673 48.8301C128.866 48.0281 132.059 44.3406 134.257 42.0437C136.751 39.6478 138.944 36.8562 141.043 34.0593C143.439 30.7676 145.434 27.1739 146.829 23.2833C147.428 21.7833 149.522 17.3926 149.126 15.3978C149.126 15.3978 148.824 16.0958 148.626 16.5958C148.923 14.8978 149.126 13.3041 149.027 11.5072C149.126 11.9083 149.324 12.5072 149.225 12.6062C149.423 12.5072 149.324 11.2103 149.324 10.7103C149.324 10.7103 149.225 10.0124 149.324 10.2103C148.923 5.41868 144.533 -0.268823 139.345 1.23118ZM139.246 13.4031C139.147 13.8041 139.147 13.7051 139.246 13.502C138.746 20.3874 134.855 27.1739 130.965 32.6635C128.97 35.5593 126.673 38.252 124.277 40.8458C123.178 41.9447 121.98 43.0437 120.783 44.0385C119.887 44.9395 117.991 45.9343 117.095 47.0333C117.892 46.2364 119.689 45.2364 120.486 44.6374C122.079 43.2416 123.678 41.6426 125.173 40.1478C127.569 37.5541 129.866 34.8562 131.861 31.9656C125.772 41.0437 117.392 48.9291 107.314 53.1218C108.111 52.6218 110.105 51.6218 110.105 51.5228C109.908 51.3249 105.918 53.1218 105.517 53.3197C106.814 50.726 108.111 48.1322 109.507 45.5333C109.908 44.9395 113.1 38.851 113.1 38.851C112.902 38.851 112.699 38.9499 112.6 39.2468C116.991 32.1635 122.783 25.0801 128.168 18.5906C129.866 16.5958 139.746 3.72597 139.246 13.3041V13.4031ZM115.793 17.3926C115.996 16.9968 116.892 14.6999 116.694 15.101L114.1 20.7885C114.699 19.6895 115.298 18.5906 115.793 17.3926ZM107.215 58.2103C107.012 58.3093 107.611 59.3093 108.413 60.7051C107.71 59.3093 107.116 58.2103 107.215 58.2103ZM114.298 70.3822C114.298 70.3822 114.298 70.2833 114.397 70.4812V70.5853L114.298 70.3822ZM114.298 70.3822C114.199 70.3822 114.199 70.2833 114.1 70.1843C114.199 70.2833 114.199 70.3822 114.298 70.3822ZM111.704 40.6478C111.704 40.5489 111.803 40.5489 111.803 40.4447C111.803 40.5489 111.704 40.6478 111.704 40.6478Z" fill="white"/>
</svg>
